<?xml version="1.0" encoding="utf-8"?>
<!-- Generator: Adobe Illustrator 23.1.0, SVG Export Plug-In . SVG Version: 6.00 Build 0)  -->
<svg version="1.1"
	 id="svg2" xmlns:cc="http://creativecommons.org/ns#" xmlns:dc="http://purl.org/dc/elements/1.1/" xmlns:rdf="http://www.w3.org/1999/02/22-rdf-syntax-ns#" xmlns:svg="http://www.w3.org/2000/svg"
	 xmlns="http://www.w3.org/2000/svg" xmlns:xlink="http://www.w3.org/1999/xlink" x="0px" y="0px" viewBox="0 0 1100 736.7"
	 style="enable-background:new 0 0 1100 736.7;" xml:space="preserve">
<path id="path2987" d="M856.3,251.2c5,0.3,13.3,0.8,18.6,1.1c18.7,1,30.3,1.7,31.9,1.9c0.9,0.1,4.3,0.5,7.7,0.7s6.9,0.6,8,0.8
	c1,0.2,3.4,0.5,5.3,0.6c6.3,0.5,12,1.3,16.6,2.5c1.8,0.5,3.5,0.7,3.7,0.5c0.3-0.2,0.4-0.1,0.2,0.2c-0.2,0.4,1.5,0.6,5.5,0.8
	c3.2,0.1,6.2,0.4,6.6,0.5s0.9,1.2,1.1,2.2c0.3,2.1,0.9,2.4,6,3.5c1.9,0.4,4.9,1.2,6.6,1.8s3.8,1.2,4.6,1.4c2.2,0.5,2.2,1.7-0.1,3.9
	c-2.4,2.4-4.3,3.3-8.1,4.2c-2.5,0.6-5.9,2.9-5.9,4.1c0,0.4,2.3,1.2,5.5,1.9c0.9,0.2,3.7,0.5,6.4,0.8c2.6,0.2,6.1,0.8,7.8,1.3
	c1.8,0.5,5.5,0.9,9.4,1c7,0.2,10,1,10.4,2.9c0.1,0.6,1.5,1.7,3.3,2.6c1.7,0.8,3,1.7,2.8,2c-0.2,0.2,0,0.3,0.4,0.2
	c1.7-0.6,4.3,0.7,5.2,2.5c1,2,0.5,3.8-1,3.7c-0.4,0-0.8,0.2-0.8,0.4c0,0.2-1.6,0.4-3.6,0.5c-2,0-3.7,0.3-3.8,0.6
	c-0.1,0.3-0.6,0.5-1.2,0.5c-0.5,0-1.1,0.2-1.3,0.5s-0.6,0.5-0.9,0.5c-0.3,0-0.4-0.2-0.3-0.4c0.1-0.2-0.4-0.4-1.3-0.4
	c-0.9,0-1.6,0.3-1.6,0.7c0,0.4-0.3,0.5-0.5,0.4s-0.5-0.1-0.5,0.2c0,0.8,1.4,1.2,3.8,0.9c1.3-0.1,3.4,0.1,4.7,0.4
	c1.3,0.4,2.7,0.7,3.2,0.8c0.4,0.1,1.2,0.4,1.7,0.6s1.4,0.3,2,0.2c1.4-0.3,1.8,0.4,0.8,1.2c-0.4,0.4-0.8,0.4-0.8,0.2
	s-0.2-0.2-0.4,0.1c-0.7,0.9-2.8,1.8-2.8,1.3c0-0.3-0.2-0.5-0.5-0.6c-0.3,0-0.5,0.2-0.3,0.4c0.4,0.6-3.9,0.6-5,0
	c-0.6-0.3-1.1-0.3-1.5,0.1c-0.7,0.7-2.9,0.9-2.4,0.3c0.5-0.8-1.2-0.5-1.9,0.3c-0.5,0.6-1,0.6-2,0.2c-1.7-0.7-2.3-0.7-1.3,0
	c0.6,0.4,0.3,0.5-1.1,0.5c-1,0-3.7,0.1-5.9,0.4c-2.2,0.3-4.6,0.5-5.4,0.5c-2.3,0.1-1.7,1.9,1.4,4c1.8,1.2,2.6,2.2,2.4,2.7
	c-0.2,0.5-0.5,0.6-0.9,0.3c-0.3-0.3-1.1-0.3-1.7-0.1s-2,0.4-3.1,0.4c-1.5,0-2.2,0.3-2.9,1.4c-1.2,1.7-1.4,2.7-0.7,4.1
	c0.3,0.6,0.3,0.9,0,0.7s-0.8,0.6-1.2,1.6c-0.4,1.1-1,2.1-1.4,2.3c-0.3,0.2,0.4,0.4,1.5,0.4c1.6,0.1,1.9,0.2,1.3,0.6
	c-0.6,0.4-0.4,0.5,0.9,0.5c1,0,2.1,0.3,2.6,0.6s3.1,1.4,5.8,2.6c5.4,2.3,8.5,2.9,20,3.7c8.8,0.6,9.8,0.7,11.1,1.5
	c1.4,0.8,8.6,2.1,13.2,2.3c2.4,0.1,4.6,0.6,6.1,1.4c1.3,0.6,3.6,1.4,5,1.6c2.9,0.5,6.6,1.9,6.6,2.5c0,0.2-1.4,0.8-3.1,1.3
	c-2.6,0.8-4.8,0.9-14.3,0.7c-7.5-0.2-11.8,0-13.2,0.4c-2,0.6-3.9,0.5-8.8-0.6c-1.3-0.3-4.8-0.6-7.9-0.8s-6.1-0.5-6.7-0.8
	c-0.6-0.3-1.8-0.4-3-0.2c-1.1,0.2-2.2,0.3-2.4,0.2c-0.9-0.3-17.1-0.5-19-0.3c-3.1,0.4-6.9,0.6-12.2,0.7c-2.7,0.1-5.3,0.4-5.6,0.7
	c-0.6,0.5,0.4,0.9,2.1,0.7c0.4,0,0.7,0.2,0.7,0.5c0,0.3,0.3,0.5,0.8,0.3c0.4-0.1,1.1,0.1,1.4,0.5c0.5,0.6,0.7,0.7,1.1,0.1
	c0.4-0.6,0.5-0.5,0.4,0c0,0.4,0.4,0.6,1,0.4c0.7-0.2,1.1,0,1.3,0.7c0.2,0.5,0.1,1-0.2,1.1c-0.8,0.3-2.2,1.6-2.2,2.2
	c0,0.8,2.1,2.7,2.6,2.4c0.3-0.2,0.4,0.1,0.2,0.5c-0.2,0.6,0,0.7,0.9,0.5c1-0.2,1.1-0.1,0.8,0.6c-0.5,1.3,0.6,1.7,1.5,0.6
	c0.5-0.6,0.7-0.7,0.5-0.2c-0.3,0.9,2.1,2.4,3,1.8c0.3-0.2,0.4-0.1,0.2,0.3c-0.2,0.3-0.1,0.6,0.2,0.6c0.3,0,0.6-0.3,0.6-0.8
	c0-1.1,1.1-1,1.1,0.2c0,0.8,0.1,0.8,0.5-0.1c0.3-0.6,0.4-1.2,0.3-1.3c-0.1-0.2,0.3-0.3,0.9-0.3c1.2-0.1,1.3,0.4,0.2,1.1
	c-0.7,0.5-0.2,0.6,2.2,0.5c1.8-0.1,2.9,0.1,2.7,0.4c-0.2,0.3,0.2,0.4,0.8,0.2c0.6-0.1,1.1,0,1.1,0.4c0,0.3,0.3,0.5,0.6,0.3
	c0.4-0.3,0.5-0.1,0.2,0.6c-0.2,0.6-0.5,1.3-0.6,1.7c-0.2,1.2-1.6,1.6-3.3,0.8c-0.9-0.4-1.3-0.8-0.9-0.8c1.3-0.1,0.7-1.1-0.7-1.1
	c-1,0-1.3,0.2-1.1,0.8c0.2,0.4,0,0.9-0.3,1.1c-0.3,0.2-0.3,0.6,0.1,1.2c0.6,0.7,0.5,0.8-0.2,0.5c-0.5-0.2-1.2-0.1-1.6,0.2
	c-0.6,0.4-0.6,0.5,0.2,0.2c0.8-0.2,0.9-0.1,0.6,1.2c-0.2,0.8-0.6,1.6-0.8,1.7c-0.8,0.5,0,2.6,0.9,2.3c0.6-0.2,0.7,0,0.6,0.7
	c-0.1,0.7,0.1,1,0.9,0.9c0.6,0,0.8,0,0.4,0.2c-0.4,0.2-0.6,0.5-0.4,0.7c0.1,0.3-0.2,0.8-0.8,1.2s-0.9,0.9-0.7,1.1
	c0.2,0.2-0.1,0.4-0.7,0.3c-0.8,0-0.9,0.1-0.2,0.5c0.5,0.3,0.9,0.3,1.2-0.1c0.2-0.3,0.5-0.5,0.7-0.3c0.3,0.3-0.7,2.6-1.4,3.1
	c-0.6,0.4-1.3,2.8-0.8,2.5c0.3-0.2,0.8,0.2,1.1,0.7c0.5,0.9,0.4,1-0.8,0.9c-0.9-0.1-1.4,0.1-1.3,0.5c0.1,0.4-0.1,0.6-0.3,0.6
	c-1.1-0.2-1.7,0.1-1.8,0.8c0,0.4-0.3,0.8-0.6,0.8c-0.3,0-0.4,0.2-0.3,0.5c0.2,0.3,0,0.6-0.4,0.7c-0.4,0.2-0.3,0.3,0.3,0.3
	c0.5,0,0.9,0.2,0.9,0.5c0,0.2,0.8,0.4,1.9,0.4c1,0,1.7,0.2,1.6,0.4s0.2,0.5,0.8,0.5c0.6,0,1,0.3,0.8,0.6c-0.2,0.3-0.1,0.5,0.3,0.5
	c0.4,0,0.5,0.4,0.3,0.9c-0.3,0.7-0.2,0.8,0.5,0.2c0.7-0.5,0.8-0.5,0.8,0.1c0,0.4-0.5,0.9-1.1,1.1c-0.6,0.2-1.1,0.7-1.1,1.4
	c0,0.9,0.2,1.1,1.4,0.9c1.2-0.2,1.3-0.2,0.5,0.3c-0.9,0.5-0.8,0.7,0.2,1.9c0.6,0.7,1.5,1.4,1.9,1.4c1.6,0,0.2,0.6-2,0.7
	c-1.3,0.1-2.1,0-1.9-0.3c0.2-0.3,0.1-0.5-0.2-0.5c-0.3,0-0.7,0.2-0.8,0.4c-0.2,0.2-1.1,0.4-2,0.3c-1-0.1-2,0.1-2.4,0.3
	c-0.4,0.3-0.8,0.2-1-0.1c-0.2-0.4-0.7-0.4-1.3-0.1c-0.6,0.3-1.6,0.5-2.2,0.4c-1.9-0.1-8.4,0.3-8.9,0.6c-0.4,0.2-6.2,0.8-8,0.8
	c-0.9,0-0.9,2.5,0,3.2c0.4,0.3,0.8,1.3,0.9,2.1c0.1,0.9,0.3,1.4,0.7,1.2c0.4-0.1,0.5,0.1,0.4,0.5c-0.2,0.5,0.3,0.8,1.3,1.1
	c1.7,0.4,3,1.6,2.5,2.4c-0.2,0.3,0.1,0.4,0.7,0.2c0.8-0.2,1.1,0,1,0.7c0,0.5,0.5,1,1,1.2c1.2,0.3,1.4,1,0.4,1.5
	c-0.4,0.2-0.5,0.1-0.2-0.3c0.2-0.3,0.2-0.6,0-0.6c-1.1,0.2-1.8-0.2-1.7-0.9c0-1.1-1.3-0.7-1.5,0.5c-0.1,0.5,0,0.9,0.2,0.8
	c1.5-0.2,2.3,0.2,2.3,1.2c0,0.6-0.3,0.9-0.6,0.8s-0.5,0.2-0.6,0.8c0,0.6-0.4,1.1-0.8,1.1s-0.9,0.3-1.1,0.8c-0.2,0.4-0.1,0.7,0.2,0.5
	c0.3-0.2,0.6,0,0.7,0.4c0.1,0.4,0.2,0.3,0.1-0.3c-0.1-0.5,0.1-0.9,0.4-0.9c0.3,0,0.5,0.3,0.5,0.6c0,0.3,0.3,0.2,0.8-0.4
	c0.6-0.7,0.6-1.1,0.2-1.4c-0.3-0.2-0.1-0.3,0.5-0.3c1,0.1,1.6,1.5,0.7,1.5c-0.2,0-0.5,0.7-0.7,1.6c-0.3,1.3-0.6,1.6-1.7,1.6
	c-0.7,0-1.3,0.2-1.4,0.5c0,0.3-0.5,0.5-1.1,0.5c-1.1,0-1.4-0.8-0.5-1.3c1-0.6,0.1-1.2-1.6-1.1c-2.2,0.1-2.7,0.7-0.8,0.8
	c1.5,0.1,1.5,0.1,0.2,0.4l-1.3,0.3l1.2,0.7c1.4,0.8,1.5,1.7,0.3,1.7c-0.5,0-0.7-0.3-0.5-0.5c0.2-0.3,0.1-0.5-0.2-0.5
	c-0.3,0-0.6,0.5-0.6,1c0,0.6-0.4,1.1-0.9,1c-0.8,0-0.8,0.1,0.1,0.8c0.8,0.6,1.1,0.6,1.3,0.1c0.2-0.4,0.7-0.5,1.3-0.3
	c0.9,0.4,0.9,0.4,0.1,1.3c-0.5,0.5-1.3,0.9-1.7,0.9c-0.7,0-1,0.6-0.9,1.7c0,0.2-0.3,0.4-0.8,0.4c-0.5,0-0.7,0.2-0.5,0.5
	c0.4,0.7-0.6,1.2-1.4,0.8c-0.4-0.2-0.3-0.6,0.1-1.1c0.5-0.5,0.5-0.7,0-0.7c-0.6,0-0.8,0.6-0.7,2.3c0.1,1.3-0.9,1.9-3.4,1.8
	c-1.2,0-1.9,0.2-1.9,0.5c0.1,0.4-1,0.6-3.1,0.5c-1.8,0-3.5,0.2-3.9,0.4c-0.4,0.3-1.4,0.3-2.2,0.2c-1.1-0.2-1.7-0.1-2.3,0.5
	c-0.4,0.5-0.5,0.7-0.2,0.5s1.1,0.6,1.9,1.9s1.5,2.1,1.5,1.8s0.5,0,1.1,0.5c0.6,0.5,1,1.3,1,1.6s-0.3,0.2-0.5-0.4
	c-0.3-0.5-0.9-1-1.4-1c-0.6,0-0.7,0.1-0.3,0.6c0.3,0.3,0.4,1,0.3,1.4c-0.3,0.6-0.4,0.6-0.7,0c-0.3-0.5-0.4-0.4-0.5,0.3
	c0,1.3,1.2,3.1,1.8,2.6c0.2-0.2,0.3-0.1,0,0.3s-0.6,0.5-0.9,0.3c-0.3-0.2-0.5-0.1-0.5,0.2c0,0.3,0.2,0.7,0.5,0.9
	c0.7,0.4,0,2-1.2,2.8c-0.5,0.4-0.8,0.9-0.7,1.2c0.2,0.4-0.1,0.4-0.9,0.1c-1-0.3-1.1-0.3-0.6,0.3c0.8,0.9,0.8,2.5,0,2.7
	c-0.5,0.2-0.7,1.1-0.5,3.2c0,0.6,0.5,0.9,1.2,1c0.6,0,0.9,0.2,0.5,0.4c-0.8,0.5-1.4,2.1-0.8,2.5c0.3,0.2,0.6,0,0.7-0.4
	c0.1-0.4,0.4-0.5,0.6-0.4c0.2,0.2,0.1,0.6-0.2,1c-0.4,0.6-0.7,0.6-1.6-0.3c-1-1-1.1-1-1.1,0c0,0.6-0.2,0.7-0.3,0.3
	c-0.1-0.4-0.5-0.7-0.8-0.7c-0.3,0-0.4,0.3-0.3,0.8s0.1,0.8-0.1,0.7c-0.2,0-1.1,0.2-1.9,0.5c-0.8,0.3-1.7,0.4-2,0.3
	c-0.3-0.2-0.5,0-0.5,0.3c0,0.3-0.2,0.5-0.5,0.3s-0.6-0.1-0.8,0.2c-0.2,0.3-0.7,0.5-1.2,0.5c-1.5,0-2.4,0.2-4.8,1.4
	c-1.3,0.6-2.6,1.1-3,1.1s-0.8,0.3-1,0.6c-0.2,0.7-5.2,0.9-5.2,0.2c0-0.2-0.7-0.2-1.5,0c-1.6,0.4-5,0.2-7.4-0.4
	c-1.3-0.3-1.7-0.2-2.3,0.9c-0.4,0.7-0.6,1.5-0.4,1.8c0.4,0.7,4,1.3,9.9,1.6c2.8,0.1,5.6,0.6,6.2,0.9c0.6,0.4,1.3,0.6,1.6,0.6
	s1.3,0,2.4,0.1c1.5,0.1,2,0.4,2.2,1.2c0.2,0.9,0,1.1-1.2,1.1c-1.4,0-1.4,0-0.4,0.8c0.9,0.7,0.5,0.8-3.9,0.5
	c-2.7-0.1-4.9-0.4-4.9-0.6c0-0.2-0.7-0.3-1.5-0.2c-3.6,0.3-9.1,0.6-11.2,0.6c-1.2,0-2.1,0.2-2,0.4c0.1,0.2-0.2,0.5-0.7,0.5
	c-2.1,0.1-2.6,0.2-3.5,0.6c-0.5,0.2-1.4,1.3-2,2.4c-1.1,2-2.8,3.1-3.2,2.1c-0.1-0.4-0.4-0.4-1,0c-0.5,0.4-0.9,0.4-1.1,0.1
	c-0.4-0.6-8.9-0.8-9.5-0.2c-0.2,0.2-0.6,0.1-0.9-0.2c-0.7-0.6-3.9-0.6-4.8,0c-0.3,0.2-1.4,0.1-2.4-0.2c-1-0.3-6.2-0.8-11.6-1.1
	c-5.4-0.3-12.9-0.7-16.7-1c-20.5-1.3-26.7-1.6-39.5-1.9c-10-0.2-14-0.5-13.9-0.9c0-0.4-0.2-0.4-0.7,0c-0.7,0.6-3.9,0.6-13.1,0.3
	c-2.8-0.1-5.3-0.2-5.6-0.2c-0.3,0-3.2,0.2-6.4,0.4c-3.2,0.2-6.3,0.2-6.7,0.1c-0.5-0.2-1-0.1-1.2,0.1c-0.2,0.2-2.3,0.4-4.7,0.4
	c-2.4,0-5.8,0.2-7.5,0.5c-1.7,0.3-6.1,0.5-9.9,0.5c-3.7,0-8.5,0.1-10.5,0.2s-4.2-0.1-4.7-0.4s-0.9-0.3-0.7-0.1
	c0.2,0.3-1.9,0.4-4.9,0.3c-2.8-0.1-6,0.1-7,0.4c-1.4,0.4-2,0.4-2.3,0c-0.3-0.4-0.4-0.4-0.4,0c0,0.4-1.5,0.6-3.9,0.6
	c-5.3,0-21.3-0.3-24.6-0.5c-1.5-0.1-4.8-0.1-7.5,0c-6.4,0.3-16.2,0.2-16.2-0.1c0-0.4-2.5-0.3-6.8,0.3c-2.1,0.3-4.5,0.4-5.3,0.2
	c-1.8-0.5-5.4-0.8-5.4-0.3c0,0.2-0.7,0.3-1.5,0.3c-14.9-0.4-43-0.1-43.9,0.4c-0.2,0.1-0.4,0-0.4-0.2c0-0.3-0.7-0.4-1.6-0.3
	s-2,0-2.5-0.2c-1.2-0.5-3.3-0.7-3-0.3c0.1,0.2-3.9,0.2-9,0c-5-0.2-9.1-0.4-9.1-0.4c0-0.1-1.5-0.2-3.3-0.3c-1.8-0.1-3.3,0-3.3,0.2
	c0,0.2-0.8,0.1-1.9-0.1c-1-0.3-2-0.3-2.1-0.1c-0.1,0.2-2.4,0.3-5.1,0.2c-2.9-0.1-4.8,0.1-4.8,0.4c0,0.3-0.2,0.3-0.4-0.1
	c-0.5-0.7-4.5-0.8-5-0.1c-0.3,0.3-0.4,0.3-0.4,0c0-0.3-0.9-0.5-2-0.5c-1.1,0-2.5-0.2-3.2-0.5c-0.7-0.3-1.6-0.3-2.2,0
	c-1,0.5-3.2,0.6-14.7,1c-2.9,0.1-7.7,0.3-10.7,0.5s-9.5,0.3-14.6,0.2c-5.1-0.1-10.3,0-11.4,0.2c-1.2,0.2-7.6,0.2-14.4,0.1
	c-15.8-0.3-27.7-0.1-32.4,0.3c-2.1,0.2-6.5,0.7-9.9,1c-3.4,0.4-9,0.8-12.5,1.1c-3.5,0.2-7.5,0.5-8.8,0.7c-4.3,0.4-8.7,0.2-12.3-0.6
	c-2.2-0.5-9.1-0.9-19-1.1c-8.5-0.2-15.7-0.5-15.9-0.6s-9.2-0.6-20-1.1s-21.6-1-23.9-1.2c-13.1-1.1-23.1-1.6-44.9-2.1
	c-3.1-0.1-6.4-0.2-7.4-0.3c-2.2-0.3-12.4-1-22-1.6c-20.8-1.3-28.5-1.7-42.5-2.2c-8.5-0.3-16.3-0.8-17.3-1c-1-0.2-3.8-0.5-6.1-0.6
	c-4.3-0.3-9.3-1-9.9-1.4c-0.2-0.1-2-0.4-4-0.6c-2-0.2-5.1-0.6-6.8-1c-1.7-0.3-3.9-0.7-4.8-0.8c-0.9-0.1-3.5-0.8-5.9-1.5
	c-2.4-0.7-4.8-1.2-5.4-1.3c-0.6,0-1.1-0.2-1.1-0.5c0-0.2-0.3-0.5-0.7-0.5c-3.6-0.1-12.2-1.2-13.5-1.6c-0.9-0.3-2.2-1.3-2.8-2.2
	c-1.2-1.7-4.4-3.5-7.3-4.1c-3.7-0.7-10-1.5-11.4-1.3c-0.7,0.1-1.4-0.1-1.3-0.5c0-0.3-0.2-0.4-0.4-0.2c-0.2,0.2-0.9-0.1-1.5-0.7
	c-0.6-0.6-2.7-2-4.6-3c-2.8-1.6-4.3-2-7.3-2.3c-4-0.3-4.7-0.8-4.2-2.9c0.3-1.3,2.4-2.3,4.8-2.3c0.7,0,1.4-0.2,1.6-0.5
	s1.2-0.5,2.1-0.5c2.8,0.1,7.2-0.9,7.2-1.6c0-1.1-4-2.6-8-3c-2.1-0.2-7.1-0.5-11.1-0.8c-8-0.6-8.8-0.7-9.2-1.8
	c-0.6-1.6,6.9-7,12.9-9.3c2-0.7,3-1.5,3.6-2.8c1.2-2.2,0.7-3.2-2.5-5.2c-1.2-0.8-2.2-1.8-2.2-2.2c0-0.4-0.3-1.2-0.8-1.6
	c-1.2-1.3-0.9-2.6,0.9-3.6c0.9-0.5,2.7-1.9,4-3c2-1.8,2.8-2.1,4.9-2.2c1.9-0.1,2.9-0.4,3.5-1.3c0.5-0.6,0.8-1.3,0.7-1.6
	c-0.1-0.2,0-0.4,0.3-0.4c0.3,0,0.8-0.5,1.2-1.2c0.4-0.6,0.5-1,0.2-0.8c-0.6,0.5-2-1.1-1.6-1.7c0.2-0.3-0.1-0.4-0.6-0.3
	c-0.5,0.1,0-0.2,1.2-0.8c1.2-0.6,2.9-1,3.8-1c0.9,0,2.3-0.2,3.1-0.5c1-0.4,1.4-0.3,1.4,0.2c0,0.4,0.2,0.2,0.6-0.2
	c1-1.7,0.1-3.6-2.5-5c-1.4-0.7-2.8-1.9-3.3-2.6c-0.4-0.7-1.7-1.6-2.9-2c-4.3-1.4-4.9-4.2-1.1-5.1c2.3-0.6,3.5-2.3,2.8-4.2
	c-0.3-1-0.3-1.4,0.1-1.4c1,0,2-1.3,1.9-2.6c0-1.3,0-1.3,4.5-2.2c0.7-0.2,2.1-0.9,3-1.6c0.9-0.7,2.3-1.7,3.1-2.1
	c0.8-0.4,1.5-1.1,1.5-1.5c0-1,2-2,4.3-2.1c2.5-0.2,3.6-0.8,3.7-2.2c0.1-1.2-1.9-3.7-3-3.8c-0.7,0-3.6-3.2-3.6-3.8
	c0-0.9,2-1.5,5.7-1.7c2-0.1,4.9-0.4,6.4-0.7c2.4-0.5,11.1-1.7,13.1-1.9c0.8-0.1,1.2-2,0.4-2c-0.2,0-0.2-0.5,0.1-1
	c0.3-0.5,0.4-1.2,0.2-1.4c-0.7-0.7-0.3-7.5,0.5-8.2c0.4-0.4,1.8-0.8,3.2-0.8c2.2-0.1,3.6-0.9,3.2-1.7c-0.1-0.2,0.2-0.6,0.6-1
	c0.4-0.4,0.8-0.5,0.7-0.3c0,0.2,0.3,0.1,0.6-0.2c0.5-0.4,0.8-0.4,1.3,0c0.5,0.4,1.1,0.4,2.3,0c2.7-1,1.9-2.7-1.8-3.4
	c-4.1-0.8-5-1.2-4.3-1.8c0.2-0.2,4-0.3,8.4-0.3c9.5,0,10.6-0.4,11.4-4.2c0.3-1.3,1.1-3.2,1.8-4.2c1.2-1.8,2.1-4.1,2.2-5.5
	c0-0.3,0.8-0.6,1.8-0.7c1.2-0.1,1.9-0.4,2.1-1.1c0.2-0.6,0.5-0.9,0.8-0.7s0.5,0.1,0.5-0.2c0-0.3,1.1-1.1,2.5-1.9
	c3.8-2.1,4.4-3.9,1.6-5c-1.3-0.5-1.4-0.9-0.4-3.2c0.7-1.6-1-2.7-6.7-4.3c-5.5-1.5-7.1-2.5-5.4-3.5c1-0.6,8.2,0.2,19.5,2.2
	c5.1,0.9,7.3,0.6,8.5-1.4c1.2-2,2.4-2.5,6-2.7c2.9-0.2,5.7-1.5,5.7-2.9c0-0.8-2.3-1.6-5-1.8c-2-0.1-4.4-1.6-3.2-2
	c0.4-0.1,1-0.6,1.5-1c0.4-0.4,0.8-0.6,0.8-0.5c0,0.6,3.3-1.3,3.9-2.3c0.8-1.3,3.6-3,4.7-2.9c2.7,0.2,6.4,0,6.4-0.5
	c0-0.8-2.7-3.3-3.3-2.9c-0.3,0.2-0.4,0.1-0.2-0.3c0.2-0.3,0.1-0.7-0.2-0.9s-0.4-0.6-0.2-0.9c0.2-0.3,0-0.9-0.3-1.3
	c-1-1.3,0-1.8,4.1-1.9c2-0.1,4.8-0.4,6.1-0.6c1.3-0.3,5.8-0.9,9.9-1.4c4.1-0.5,8.8-1.4,10.5-1.9c1.7-0.5,4.4-0.9,6.3-0.9
	c1.8,0,5-0.4,7.2-0.9c3.7-0.9,4.9-0.9,22.5-0.2c10.2,0.4,20.6,0.9,23.1,1.1c6.5,0.5,14.4,1.3,15.5,1.5c0.5,0.1,6.7,0.5,13.8,0.9
	c10.1,0.5,14.4,0.6,20.1,0c4-0.4,11.2-0.7,16.2-0.7c4.9-0.1,9.8-0.2,10.9-0.3c3.7-0.4,16.4-0.9,23.8-1c4.1-0.1,11.5-0.2,16.5-0.4
	c5-0.1,15-0.3,22.4-0.3c7.3,0,14,0,14.9-0.1c0.9-0.1,6.9-0.2,13.4-0.2c6.5,0,12.5-0.1,13.3-0.2c1.6-0.2,5.7-0.3,19.9-0.9
	c11.2-0.4,19.6-1,26.5-1.7c3-0.3,6.4-0.6,7.5-0.6c1.1,0,2.7-0.2,3.6-0.4s3.1-0.5,4.9-0.7c1.8-0.1,5.7-0.6,8.5-1.1
	c2.9-0.5,6.6-1,8.4-1.1c1.8-0.1,5-0.4,7.2-0.6c2.2-0.2,5.4-0.5,7.2-0.6c1.8-0.1,5.8-0.5,9-0.9c3.2-0.4,7.7-0.8,10.1-0.9
	s5.7-0.3,7.4-0.5c1.7-0.2,6-0.3,9.6-0.3c3.6,0,8.3-0.1,10.5-0.3c4.3-0.4,13.6-0.7,20.8-0.6c2.5,0,5.6-0.1,6.9-0.3
	c1.3-0.2,10.4-0.3,20.2-0.2c9.8,0.1,18.3,0.1,19,0s5.8-0.2,11.5-0.3c5.7-0.1,11.5-0.1,13-0.2s6.9-0.1,12-0.2
	c5.1,0,11.4-0.2,13.8-0.3c2.5-0.1,4.8-0.2,5.1-0.1c0.3,0.1,4,0,8.3-0.2c4.3-0.2,10.1-0.4,13.1-0.5c2.9-0.1,6.2-0.2,7.2-0.3
	c1-0.1,5.1-0.2,9.1-0.3s7.3-0.2,7.5-0.3c0.1-0.1,3.3-0.2,6.9-0.3c3.7-0.1,7.1-0.3,7.7-0.4c1.1-0.2,38.8,0.1,55.1,0.4
	C843.3,250.5,851.3,250.9,856.3,251.2L856.3,251.2z M964.2,319.8c-0.3,0-0.1,0.5,0.5,1.1c0.8,1,1.5,1.1,4.7,1.1c2,0,3.8-0.3,3.9-0.6
	c0.3-0.8-3.4-1.8-6.2-1.7C965.8,319.8,964.5,319.8,964.2,319.8z M951,348.6c0,0.1,0.2,0.2,0.5,0.2c0.3,0,0.5-0.2,0.5-0.5
	c0-0.3-0.2-0.4-0.5-0.2S951,348.4,951,348.6z M977.7,365.1c0,0.1,0.4,0.4,0.8,0.5c0.5,0.2,0.7,0.1,0.5-0.2
	C978.7,365,977.7,364.7,977.7,365.1L977.7,365.1z M971.3,381.9c0.5,0.5,0.6,0.5,0.3-0.3c-0.2-0.5-0.5-0.8-0.6-0.7
	C970.8,381.1,971,381.6,971.3,381.9L971.3,381.9z M966.9,388.2c0.5,0.5,0.6,0.5,0.3-0.3c-0.2-0.5-0.5-0.8-0.6-0.7
	C966.4,387.4,966.6,387.8,966.9,388.2L966.9,388.2z M970.9,391.4c0.2,0.3,0.4,0.5,0.5,0.5c0.1,0,0.2-0.2,0.2-0.5
	c0-0.3-0.2-0.5-0.5-0.5C970.8,390.8,970.7,391.1,970.9,391.4z M949.1,416.2c0.4,0.2,0.8,0.2,1,0c0.2-0.2-0.1-0.3-0.7-0.3
	C948.8,415.9,948.7,416,949.1,416.2L949.1,416.2z M949.2,417.6c0.8,0.7,2.1,2.8,2,3.4c0,0.2-0.4,0-0.8-0.4c-1-0.9-1.7-0.3-0.8,0.8
	c0.7,0.9,2.1,0.2,2.2-1.1c0-0.4,0.2-0.6,0.4-0.5c0.2,0.1,0.5-0.2,0.5-0.8c0.1-0.7-0.2-1-0.9-1.1c-0.6,0-1-0.3-1-0.6
	c0-0.3-0.5-0.5-1.2-0.5C948.6,416.9,948.5,417,949.2,417.6L949.2,417.6z M952.4,418.8c0,0.1-0.2,0.4-0.5,0.5s-0.5,0.1-0.5-0.2
	c0-0.3,0.3-0.6,0.5-0.5C952.1,418.6,952.4,418.7,952.4,418.8z M942.7,429.6c0,0.7,0,0.9,0.2,0.5s0.5-0.5,0.7-0.4
	c0.3,0.2,0.3-0.1,0.2-0.5C943.4,428.1,942.8,428.3,942.7,429.6z M945.4,430.1c-0.6,0.9,0.1,1.1,0.8,0.3c0.4-0.5,0.5-0.8,0.1-0.8
	C946,429.6,945.6,429.8,945.4,430.1L945.4,430.1z M927.7,448c0,0.1,0.4,0.4,0.8,0.5c0.4,0.2,0.8,0.1,0.8-0.2c0-0.3-0.3-0.5-0.8-0.5
	S927.7,447.8,927.7,448L927.7,448z M1017.5,308.4c0,0.3-0.3,0.6-0.6,0.8s-0.5-0.1-0.5-0.5c0-0.5,0.3-0.8,0.6-0.8
	C1017.2,307.9,1017.5,308.1,1017.5,308.4z M994.7,351.6c-0.3,0.3-0.9,0.4-1.3,0.3c-0.4-0.1-0.1-0.4,0.6-0.5
	C994.9,351.1,995.1,351.2,994.7,351.6z M987.1,351.3c0.5,0.4,0.6,0.6,0.1,0.6c-1.2,0.1-1.5,0.2-2.1,0.6c-0.4,0.2-0.8,0.1-1-0.2
	c-0.2-0.4-0.1-0.5,0.2-0.2c0.4,0.2,0.6,0.1,0.6-0.4C985,350.6,985.9,350.5,987.1,351.3z M989.8,352.6c-0.4,0.4-0.8,0.4-1.1,0.1
	s-0.1-0.6,0.6-0.6C990.1,352,990.3,352.1,989.8,352.6L989.8,352.6z M976.2,360.4c0,0.5-0.3,0.7-0.5,0.5c-0.3-0.2-0.5-0.6-0.5-0.8
	s0.3-0.5,0.5-0.5C976,359.6,976.2,359.9,976.2,360.4z M975.4,369.3c-0.9,1.6-1,1.7-0.9,0.4c0.1-0.6,0.4-1.2,0.8-1.4
	C975.9,368.2,975.9,368.3,975.4,369.3L975.4,369.3z M971.7,388.7c0.4,0.3,0.2,0.5-0.8,0.8c-1.8,0.4-2.1,0.1-0.8-0.6
	C970.6,388.5,971.4,388.5,971.7,388.7L971.7,388.7z M960.1,424.4c-0.2,0.2-0.6,0.2-1,0c-0.4-0.2-0.3-0.3,0.3-0.3
	C959.9,424.1,960.2,424.2,960.1,424.4L960.1,424.4z M958.4,426.5c-0.2,0.2-0.6,0.2-1,0c-0.4-0.2-0.3-0.3,0.3-0.3
	C958.3,426.2,958.6,426.3,958.4,426.5z M948.8,433.1c0,0.6-0.1,0.9-0.3,0.7c-0.2-0.2-0.2-0.6,0-1
	C948.6,432.3,948.8,432.5,948.8,433.1L948.8,433.1z M929.4,462.2c0.5,0.3,0.5,0.5,0.2,0.5c-0.3,0-0.8-0.3-0.9-0.5
	C928.2,461.5,928.4,461.5,929.4,462.2L929.4,462.2z"/>
</svg>
