<?xml version="1.0" standalone="no"?>
<!DOCTYPE svg PUBLIC "-//W3C//DTD SVG 20010904//EN"
 "http://www.w3.org/TR/2001/REC-SVG-20010904/DTD/svg10.dtd">
<svg version="1.0" xmlns="http://www.w3.org/2000/svg"
 width="512.000000pt" height="512.000000pt" viewBox="0 0 512.000000 512.000000"
 preserveAspectRatio="xMidYMid meet">
<metadata>
Created by potrace 1.11, written by Peter Selinger 2001-2013
</metadata>
<g transform="translate(0.000000,512.000000) scale(0.100000,-0.100000)"
fill="#000000" stroke="none">
<path d="M2985 4830 c-42 -9 -73 -27 -89 -53 -8 -12 -123 -375 -254 -807
l-240 -784 -643 -239 c-473 -175 -651 -245 -672 -265 -64 -61 -53 -166 23
-215 14 -8 306 -120 650 -247 344 -127 630 -236 636 -243 7 -7 118 -372 248
-812 130 -439 243 -809 251 -822 51 -77 190 -70 236 12 9 17 121 386 249 820
128 435 238 795 244 802 6 6 281 111 611 233 330 122 624 232 653 245 43 20
56 32 72 67 11 24 20 52 20 62 0 33 -38 101 -67 118 -16 8 -311 120 -658 248
-346 128 -631 234 -633 236 -2 1 -111 354 -242 784 -131 430 -246 792 -254
805 -27 41 -90 66 -141 55z"/>
<path d="M749 4757 c-30 -20 -42 -43 -105 -212 l-71 -189 -189 -70 c-169 -64
-191 -75 -211 -105 -41 -60 -25 -162 30 -193 12 -7 100 -42 196 -78 l174 -65
63 -170 c35 -93 69 -181 76 -194 31 -59 130 -80 193 -41 36 22 52 56 133 275
l47 129 130 48 c220 81 253 97 275 133 39 63 18 162 -41 193 -13 7 -100 41
-194 76 l-170 63 -65 174 c-36 96 -71 184 -78 196 -31 55 -133 71 -193 30z"/>
<path d="M1405 1839 c-66 -19 -80 -47 -151 -309 -37 -135 -70 -249 -74 -254
-5 -4 -85 -37 -180 -71 -95 -35 -183 -74 -196 -86 -56 -52 -54 -152 4 -201 16
-13 106 -52 200 -87 l172 -63 9 -36 c6 -21 35 -138 66 -261 31 -123 62 -236
70 -251 26 -49 62 -70 123 -70 50 0 58 3 92 38 36 36 39 46 104 308 l68 272
169 62 c92 34 180 71 194 82 72 56 72 159 1 215 -13 11 -101 48 -195 82 -161
60 -171 65 -180 94 -6 18 -35 127 -67 242 -31 116 -63 222 -71 236 -29 49
-101 75 -158 58z"/>
</g>
</svg>
